<?xml version="1.0" encoding="UTF-8"?>
<svg xmlns="http://www.w3.org/2000/svg" xmlns:xlink="http://www.w3.org/1999/xlink" width="15px" height="17px" viewBox="0 0 15 17" version="1.1">
<g id="surface1">
<path style=" stroke:none;fill-rule:nonzero;fill:#a3bbc8;fill-opacity:1;" d="M 5.089844 0.796875 C 5.089844 0.355469 4.730469 0 4.285156 0 C 3.839844 0 3.480469 0.355469 3.480469 0.796875 L 3.480469 2.125 L 2.144531 2.125 C 0.960938 2.125 0 3.078125 0 4.25 L 0 14.875 C 0 16.046875 0.960938 17 2.144531 17 L 12.855469 17 C 14.039062 17 15 16.046875 15 14.875 L 15 4.25 C 15 3.078125 14.039062 2.125 12.855469 2.125 L 11.519531 2.125 L 11.519531 0.796875 C 11.519531 0.355469 11.160156 0 10.714844 0 C 10.269531 0 9.910156 0.355469 9.910156 0.796875 L 9.910156 2.125 L 5.089844 2.125 Z M 1.605469 6.375 L 4.285156 6.375 L 4.285156 8.234375 L 1.605469 8.234375 Z M 1.605469 9.828125 L 4.285156 9.828125 L 4.285156 11.953125 L 1.605469 11.953125 Z M 5.894531 9.828125 L 9.105469 9.828125 L 9.105469 11.953125 L 5.894531 11.953125 Z M 10.714844 9.828125 L 13.394531 9.828125 L 13.394531 11.953125 L 10.714844 11.953125 Z M 13.394531 8.234375 L 10.714844 8.234375 L 10.714844 6.375 L 13.394531 6.375 Z M 13.394531 13.546875 L 13.394531 14.875 C 13.394531 15.167969 13.152344 15.40625 12.855469 15.40625 L 10.714844 15.40625 L 10.714844 13.546875 Z M 9.105469 13.546875 L 9.105469 15.40625 L 5.894531 15.40625 L 5.894531 13.546875 Z M 4.285156 13.546875 L 4.285156 15.40625 L 2.144531 15.40625 C 1.847656 15.40625 1.605469 15.167969 1.605469 14.875 L 1.605469 13.546875 Z M 9.105469 8.234375 L 5.894531 8.234375 L 5.894531 6.375 L 9.105469 6.375 Z M 9.105469 8.234375 "/>
</g>
</svg>
